# xmcd
#
# Track frame offsets: 
#        150
#        11884
#        21354
#        32240
#        41878
#        54217
#        72251
#        83345
#        98539
#        110101
#        120136
#
# Disc length: 1710 seconds
#
# Revision: 0
# Processed by: cddbd v1.5.1PL0 Copyright (c) Steve Scherf et al.
# Submitted via: ExactAudioCopy v0.95b3
#
DISCID=8306ac0b
DTITLE=Papa Link Davis - Big Mamou Boogie (The Crazy Cajun Recordings)
DYEAR=1999
DGENRE=Country
TTITLE0=(Live With Me In) Big Mamou
TTITLE1=Red Bandana
TTITLE2=Let's Go To Big Houston
TTITLE3=Let's Go Little Dee Don
TTITLE4=Jolie Blonde
TTITLE5=I Played That Song For You
TTITLE6=Face In The Glass
TTITLE7=Blues For Louisiana
TTITLE8=Sugar Bee
TTITLE9=Albuquerque
TTITLE10=I Passed In Front Of Your Door
EXTD=
EXTT0=
EXTT1=
EXTT2=
EXTT3=
EXTT4=
EXTT5=
EXTT6=
EXTT7=
EXTT8=
EXTT9=
EXTT10=
PLAYORDER=
